<?xml version="1.0" encoding="iso-8859-1"?>
<!-- Generator: Adobe Illustrator 18.0.0, SVG Export Plug-In . SVG Version: 6.00 Build 0)  -->
<!DOCTYPE svg PUBLIC "-//W3C//DTD SVG 1.1//EN" "http://www.w3.org/Graphics/SVG/1.1/DTD/svg11.dtd">
<svg version="1.1" id="Capa_1" xmlns="http://www.w3.org/2000/svg" xmlns:xlink="http://www.w3.org/1999/xlink" x="0px" y="0px"
	 viewBox="0 0 374.801 374.801" style="enable-background:new 0 0 374.801 374.801;" xml:space="preserve">
<path d="M344.844,69.882h-16.457c-0.096,0-0.188,0.013-0.284,0.015V42.897C328.103,19.207,308.896,0,285.204,0H89.597
	C65.905,0,46.698,19.207,46.698,42.897v26.999c-0.096-0.002-0.188-0.015-0.284-0.015H29.959c-7.676,0-13.922,6.245-13.922,13.921
	v55.245c0,7.677,6.246,13.922,13.922,13.922h16.455c0.096,0,0.188-0.013,0.284-0.015v134.059c0,18.245,11.397,33.82,27.454,40.021
	v32.6c0,8.375,6.79,15.166,15.165,15.166h29.727c8.376,0,15.167-6.791,15.167-15.166v-29.725H240.59v29.725
	c0,8.375,6.791,15.166,15.167,15.166h29.727c8.375,0,15.165-6.791,15.165-15.166v-32.6c16.057-6.201,27.454-21.776,27.454-40.021
	V152.955c0.096,0.002,0.188,0.015,0.284,0.015h16.457c7.676,0,13.92-6.245,13.92-13.922V83.803
	C358.764,76.127,352.52,69.882,344.844,69.882z M159.087,17.785h56.627c7.582,0,13.724,6.147,13.724,13.728
	c0,7.582-6.142,13.729-13.724,13.729h-56.627c-7.582,0-13.724-6.147-13.724-13.729C145.363,23.933,151.505,17.785,159.087,17.785z
	 M119.626,286.604c-14.532,0-26.313-11.778-26.313-26.308c0-14.528,11.781-26.309,26.313-26.309
	c14.529,0,26.309,11.78,26.309,26.309C145.935,274.826,134.155,286.604,119.626,286.604z M255.175,286.604
	c-14.527,0-26.309-11.778-26.309-26.308c0-14.528,11.781-26.309,26.309-26.309c14.534,0,26.314,11.78,26.314,26.309
	C281.488,274.826,269.709,286.604,255.175,286.604z M288.237,198.417H86.563V64.579h201.674V198.417z"/>
<g>
</g>
<g>
</g>
<g>
</g>
<g>
</g>
<g>
</g>
<g>
</g>
<g>
</g>
<g>
</g>
<g>
</g>
<g>
</g>
<g>
</g>
<g>
</g>
<g>
</g>
<g>
</g>
<g>
</g>
</svg>
